<?xml version="1.0" encoding="UTF-8" standalone="no"?>
<svg
   xmlns:dc="http://purl.org/dc/elements/1.1/"
   xmlns:cc="http://creativecommons.org/ns#"
   xmlns:rdf="http://www.w3.org/1999/02/22-rdf-syntax-ns#"
   xmlns:svg="http://www.w3.org/2000/svg"
   xmlns="http://www.w3.org/2000/svg"
   xmlns:sodipodi="http://sodipodi.sourceforge.net/DTD/sodipodi-0.dtd"
   xmlns:inkscape="http://www.inkscape.org/namespaces/inkscape"
   preserveAspectRatio="xMinYMin meet"
   width="1265.625"
   height="867.188"
   viewBox="0 0 1265.625 867.188"
   version="1.1"
   id="svg24"
   sodipodi:docname="animated_rack_and_pinion_Frame1.svg"
   inkscape:version="0.92.2 (5c3e80d, 2017-08-06)">
  <metadata
     id="metadata30">
    <rdf:RDF>
      <cc:Work
         rdf:about="">
        <dc:format>image/svg+xml</dc:format>
        <dc:type
           rdf:resource="http://purl.org/dc/dcmitype/StillImage" />
      </cc:Work>
    </rdf:RDF>
  </metadata>
  <defs
     id="defs28" />
  <sodipodi:namedview
     pagecolor="#ffffff"
     bordercolor="#666666"
     borderopacity="1"
     objecttolerance="10"
     gridtolerance="10"
     guidetolerance="10"
     inkscape:pageopacity="0"
     inkscape:pageshadow="2"
     inkscape:window-width="1920"
     inkscape:window-height="1027"
     id="namedview26"
     showgrid="false"
     inkscape:zoom="0.27214399"
     inkscape:cx="632.8125"
     inkscape:cy="433.594"
     inkscape:window-x="1912"
     inkscape:window-y="181"
     inkscape:window-maximized="1"
     inkscape:current-layer="svg24" />
  <desc
     id="desc2">Matlab Figure Converted by PLOT2SVG written by Juerg Schwizer</desc>
  <g
     id="topgroup">
    <rect
       x="0"
       y="0"
       width="1265.625"
       height="867.18799"
       id="rect4"
       style="fill:#ffffff;stroke:none" />
    <g
       id="ID000000">
      <clipPath
         id="ID000001">
        <rect
           x="-62.743999"
           y="-43.359001"
           width="1391.113"
           height="953.90601"
           id="rect6" />
      </clipPath>
      <g
         id="g20">
        <g
           id="ID000002"
           clip-path="url(#ID000001)">
          <polygon
             points="845.661,349.375 866.845,341.588 884.152,333.009 900.704,320.426 915.498,300.947 915.07,298.975 914.628,297.006 914.172,295.04 913.702,293.077 891.921,281.946 871.549,277.791 852.233,277.571 829.768,279.746 827.403,274.255 824.884,268.831 822.215,263.481 819.396,258.207 835.103,242 846.974,226.761 856.428,208.243 861.305,184.274 860.064,182.683 858.811,181.101 857.547,179.527 856.272,177.962 831.819,177.384 811.661,182.48 794.163,190.662 774.867,202.369 770.353,198.448 765.73,194.654 761.003,190.992 756.176,187.464 763.296,166.046 767.379,147.166 767.862,126.38 761.857,102.669 760.047,101.774 758.232,100.892 756.411,100.022 754.583,99.166 732.3,109.255 716.35,122.592 704.135,137.556 691.829,156.476 686.061,154.902 680.25,153.489 674.403,152.241 668.522,151.157 665.644,128.771 661.132,109.989 652.548,91.052 636.849,72.294 634.831,72.273 632.813,72.266 630.794,72.273 628.776,72.294 613.077,91.052 604.493,109.989 599.981,128.771 597.103,151.157 591.222,152.241 585.375,153.489 579.564,154.902 573.796,156.476 561.49,137.556 549.275,122.592 533.325,109.255 511.042,99.166 509.214,100.022 507.393,100.892 505.578,101.774 503.768,102.669 497.763,126.38 498.246,147.166 502.329,166.046 509.449,187.464 504.622,190.992 499.895,194.654 495.272,198.448 490.758,202.369 471.462,190.662 453.964,182.48 433.806,177.384 409.353,177.962 408.078,179.527 406.814,181.101 405.561,182.683 404.32,184.274 409.197,208.243 418.651,226.761 430.522,242 446.229,258.207 443.41,263.481 440.741,268.831 438.222,274.255 435.857,279.746 413.392,277.571 394.076,277.791 373.704,281.946 351.923,293.077 351.453,295.04 350.997,297.006 350.555,298.975 350.127,300.947 364.921,320.426 381.473,333.009 398.78,341.588 419.964,349.375 419.713,355.349 419.629,361.328 419.713,367.307 419.964,373.281 398.78,381.069 381.473,389.647 364.921,402.23 350.127,421.709 350.555,423.681 350.997,425.651 351.453,427.617 351.923,429.58 373.704,440.711 394.076,444.866 413.392,445.085 435.857,442.91 438.222,448.402 440.741,453.825 443.41,459.176 446.229,464.449 430.522,480.656 418.651,495.895 409.197,514.413 404.32,538.382 405.561,539.973 406.814,541.556 408.078,543.129 409.353,544.694 433.806,545.272 453.964,540.176 471.462,531.994 490.758,520.287 495.272,524.208 499.895,528.002 504.622,531.664 509.449,535.192 502.329,556.61 498.246,575.49 497.763,596.276 503.768,619.988 505.578,620.882 507.393,621.764 509.214,622.634 511.042,623.49 533.325,613.402 549.275,600.064 561.49,585.1 573.796,566.18 579.564,567.755 585.375,569.167 591.222,570.415 597.103,571.5 599.981,593.885 604.493,612.667 613.077,631.605 628.776,650.362 630.794,650.384 632.812,650.391 634.831,650.384 636.849,650.362 652.548,631.605 661.132,612.667 665.644,593.885 668.522,571.5 674.403,570.415 680.25,569.167 686.061,567.755 691.829,566.18 704.135,585.1 716.35,600.064 732.3,613.402 754.583,623.49 756.411,622.634 758.232,621.764 760.047,620.882 761.857,619.988 767.862,596.276 767.379,575.49 763.296,556.61 756.176,535.192 761.003,531.664 765.73,528.002 770.353,524.208 774.867,520.287 794.163,531.994 811.661,540.176 831.819,545.272 856.272,544.694 857.547,543.129 858.811,541.556 860.064,539.973 861.305,538.382 856.428,514.413 846.974,495.895 835.103,480.656 819.396,464.449 822.215,459.176 824.884,453.825 827.403,448.402 829.768,442.91 852.233,445.085 871.549,444.866 891.921,440.711 913.702,429.58 914.172,427.617 914.628,425.651 915.07,423.681 915.498,421.709 900.704,402.23 884.152,389.647 866.845,381.069 845.661,373.281 845.912,367.307 845.996,361.328 845.912,355.349 "
             id="polygon9"
             style="fill:#ff3333;fill-opacity:1;stroke:#000000;stroke-width:3.30000007pt;stroke-dasharray:none;stroke-opacity:1" />
        </g>
        <g
           id="ID000003"
           clip-path="url(#ID000001)">
          <polyline
             points="741.211,361.328 741.168,358.288 741.040,355.250 740.827,352.217 740.529,349.191 739.969,344.967 738.820,338.685 738.659,337.946 738.493,337.207 738.322,336.470 738.146,335.734 736.456,329.575 735.128,325.526 734.084,322.671 732.960,319.846 731.757,317.053 730.476,314.296 729.119,311.575 727.685,308.894 726.177,306.254 724.596,303.657 722.259,300.094 718.497,294.933 718.032,294.336 717.562,293.743 717.088,293.153 716.610,292.566 712.415,287.750 709.462,284.679 707.282,282.559 705.043,280.502 702.748,278.508 700.398,276.579 697.994,274.717 695.540,272.923 693.035,271.198 690.484,269.545 686.832,267.349 681.204,264.331 680.526,263.995 679.845,263.665 679.162,263.338 678.476,263.017 672.608,260.499 668.614,259.013 665.731,258.049 662.821,257.166 659.888,256.366 656.933,255.647 653.960,255.013 650.970,254.461 647.966,253.994 644.949,253.611 640.707,253.218 634.326,252.940 633.569,252.932 632.813,252.930 632.056,252.932 631.299,252.940 624.918,253.218 620.676,253.611 617.659,253.994 614.655,254.461 611.665,255.013 608.692,255.647 605.737,256.366 602.804,257.166 599.894,258.049 597.011,259.013 593.017,260.499 587.149,263.017 586.463,263.338 585.780,263.665 585.099,263.995 584.421,264.331 578.793,267.349 575.141,269.545 572.590,271.198 570.085,272.923 567.631,274.717 565.227,276.579 562.877,278.508 560.582,280.502 558.343,282.559 556.163,284.679 553.210,287.750 549.015,292.566 548.537,293.153 548.063,293.743 547.593,294.336 547.128,294.933 543.366,300.094 541.029,303.657 539.448,306.254 537.940,308.894 536.506,311.575 535.149,314.296 533.868,317.053 532.665,319.846 531.541,322.671 530.497,325.526 529.169,329.575 527.479,335.734 527.303,336.470 527.132,337.207 526.966,337.946 526.805,338.685 525.656,344.967 525.096,349.191 524.798,352.217 524.585,355.250 524.457,358.288 524.414,361.328 524.457,364.368 524.585,367.406 524.798,370.439 525.096,373.465 525.656,377.689 526.805,383.971 526.966,384.711 527.132,385.449 527.303,386.186 527.479,386.922 529.169,393.081 530.497,397.130 531.541,399.985 532.665,402.810 533.868,405.603 535.149,408.360 536.506,411.081 537.940,413.762 539.448,416.403 541.029,419.000 543.366,422.562 547.128,427.723 547.593,428.320 548.063,428.913 548.537,429.504 549.015,430.090 553.210,434.906 556.163,437.977 558.343,440.097 560.582,442.155 562.877,444.149 565.227,446.077 567.631,447.940 570.085,449.734 572.590,451.458 575.141,453.112 578.793,455.307 584.421,458.325 585.099,458.661 585.780,458.992 586.463,459.318 587.149,459.639 593.017,462.158 597.011,463.644 599.894,464.607 602.804,465.490 605.737,466.291 608.692,467.009 611.665,467.644 614.655,468.195 617.659,468.662 620.676,469.045 624.918,469.439 631.299,469.716 632.056,469.724 632.813,469.727 633.569,469.724 634.326,469.716 640.707,469.439 644.949,469.045 647.966,468.662 650.970,468.195 653.960,467.644 656.933,467.009 659.888,466.291 662.821,465.490 665.731,464.607 668.614,463.644 672.608,462.158 678.476,459.639 679.162,459.318 679.845,458.992 680.526,458.661 681.204,458.325 686.832,455.307 690.484,453.112 693.035,451.458 695.540,449.734 697.994,447.940 700.398,446.077 702.748,444.149 705.043,442.155 707.282,440.097 709.462,437.977 712.415,434.906 716.610,430.090 717.088,429.504 717.562,428.913 718.032,428.320 718.497,427.723 722.259,422.562 724.596,419.000 726.177,416.403 727.685,413.762 729.119,411.081 730.476,408.360 731.757,405.603 732.960,402.810 734.084,399.985 735.128,397.130 736.456,393.081 738.146,386.922 738.322,386.186 738.493,385.449 738.659,384.711 738.820,383.971 739.969,377.689 740.529,373.465 740.827,370.439 741.040,367.406 741.168,364.368 741.211,361.328 "
             id="polyline12"
             style="fill:none;stroke:#000000;stroke-width:3.30000007pt;stroke-dasharray:none" />
          <g
             id="g14" />
        </g>
        <g
           id="ID000004"
           clip-path="url(#ID000001)">
          <polygon
             points="-908.126,578.125 -889.864,578.125 -851.368,654.004 -833.107,654.004 -794.611,578.125 -776.349,578.125 -737.854,654.004 -719.592,654.004 -681.096,578.125 -662.835,578.125 -624.339,654.004 -606.078,654.004 -567.582,578.125 -549.32,578.125 -510.824,654.004 -492.563,654.004 -454.067,578.125 -435.806,578.125 -397.31,654.004 -379.048,654.004 -340.553,578.125 -322.291,578.125 -283.795,654.004 -265.534,654.004 -227.038,578.125 -208.777,578.125 -170.281,654.004 -152.019,654.004 -113.523,578.125 -95.262,578.125 -56.766,654.004 -38.505,654.004 -0.009,578.125 18.253,578.125 56.748,654.004 75.01,654.004 113.506,578.125 131.767,578.125 170.263,654.004 188.524,654.004 227.02,578.125 245.282,578.125 283.778,654.004 302.039,654.004 340.535,578.125 358.796,578.125 397.292,654.004 415.554,654.004 454.049,578.125 472.311,578.125 510.807,654.004 529.068,654.004 567.564,578.125 585.825,578.125 624.321,654.004 642.583,654.004 681.079,578.125 699.34,578.125 737.836,654.004 756.097,654.004 794.593,578.125 812.855,578.125 851.35,654.004 869.612,654.004 908.108,578.125 926.369,578.125 964.865,654.004 983.126,654.004 1021.622,578.125 1039.884,578.125 1078.38,654.004 1096.641,654.004 1135.137,578.125 1153.398,578.125 1191.894,654.004 1210.156,654.004 1248.651,578.125 1266.913,578.125 1305.409,654.004 1323.67,654.004 1362.166,578.125 1380.428,578.125 1418.923,654.004 1437.185,654.004 1475.681,578.125 1493.942,578.125 1532.438,654.004 1550.699,654.004 1589.195,578.125 1607.457,578.125 1645.952,654.004 1664.214,654.004 1702.71,578.125 1720.971,578.125 1759.467,654.004 1777.729,654.004 1816.224,578.125 1834.486,578.125 1872.982,654.004 1891.243,654.004 1929.739,578.125 1948,578.125 1986.496,654.004 2004.758,654.004 2043.254,578.125 2061.515,578.125 2100.011,654.004 2118.272,654.004 2156.768,578.125 2175.03,578.125 2175.03,794.922 -946.621,794.922 -946.621,654.004 "
             id="polygon17"
             style="fill:#1ab31a;fill-opacity:1;stroke:#000000;stroke-width:3.30000007pt;stroke-dasharray:none;stroke-opacity:1" />
        </g>
      </g>
    </g>
  </g>
</svg>
