<?xml version="1.0" encoding="utf-8" standalone="no"?>
<!DOCTYPE svg PUBLIC "-//W3C//DTD SVG 1.1//EN"
  "http://www.w3.org/Graphics/SVG/1.1/DTD/svg11.dtd">
<!-- Created with matplotlib (https://matplotlib.org/) -->
<svg height="345.6pt" version="1.1" viewBox="0 0 460.8 345.6" width="460.8pt" xmlns="http://www.w3.org/2000/svg" xmlns:xlink="http://www.w3.org/1999/xlink">
 <defs>
  <style type="text/css">
*{stroke-linecap:butt;stroke-linejoin:round;}
  </style>
 </defs>
 <g id="figure_1">
  <g id="patch_1">
   <path d="M 0 345.6 
L 460.8 345.6 
L 460.8 0 
L 0 0 
z
" style="fill:#ffffff;"/>
  </g>
  <g id="axes_1">
   <g id="patch_2">
    <path d="M 57.6 307.584 
L 414.72 307.584 
L 414.72 41.472 
L 57.6 41.472 
z
" style="fill:#ffffff;"/>
   </g>
   <g id="matplotlib.axis_1">
    <g id="xtick_1">
     <g id="line2d_1">
      <defs>
       <path d="M 0 0 
L 0 3.5 
" id="m746d79d244" style="stroke:#000000;stroke-width:0.8;"/>
      </defs>
      <g>
       <use style="stroke:#000000;stroke-width:0.8;" x="73.832727" xlink:href="#m746d79d244" y="307.584"/>
      </g>
     </g>
     <g id="text_1">
      <!-- 0 -->
      <defs>
       <path d="M 31.78125 66.40625 
Q 24.171875 66.40625 20.328125 58.90625 
Q 16.5 51.421875 16.5 36.375 
Q 16.5 21.390625 20.328125 13.890625 
Q 24.171875 6.390625 31.78125 6.390625 
Q 39.453125 6.390625 43.28125 13.890625 
Q 47.125 21.390625 47.125 36.375 
Q 47.125 51.421875 43.28125 58.90625 
Q 39.453125 66.40625 31.78125 66.40625 
z
M 31.78125 74.21875 
Q 44.046875 74.21875 50.515625 64.515625 
Q 56.984375 54.828125 56.984375 36.375 
Q 56.984375 17.96875 50.515625 8.265625 
Q 44.046875 -1.421875 31.78125 -1.421875 
Q 19.53125 -1.421875 13.0625 8.265625 
Q 6.59375 17.96875 6.59375 36.375 
Q 6.59375 54.828125 13.0625 64.515625 
Q 19.53125 74.21875 31.78125 74.21875 
z
" id="DejaVuSans-48"/>
      </defs>
      <g transform="translate(70.651477 322.182437)scale(0.1 -0.1)">
       <use xlink:href="#DejaVuSans-48"/>
      </g>
     </g>
    </g>
    <g id="xtick_2">
     <g id="line2d_2">
      <g>
       <use style="stroke:#000000;stroke-width:0.8;" x="122.530909" xlink:href="#m746d79d244" y="307.584"/>
      </g>
     </g>
     <g id="text_2">
      <!-- 5 -->
      <defs>
       <path d="M 10.796875 72.90625 
L 49.515625 72.90625 
L 49.515625 64.59375 
L 19.828125 64.59375 
L 19.828125 46.734375 
Q 21.96875 47.46875 24.109375 47.828125 
Q 26.265625 48.1875 28.421875 48.1875 
Q 40.625 48.1875 47.75 41.5 
Q 54.890625 34.8125 54.890625 23.390625 
Q 54.890625 11.625 47.5625 5.09375 
Q 40.234375 -1.421875 26.90625 -1.421875 
Q 22.3125 -1.421875 17.546875 -0.640625 
Q 12.796875 0.140625 7.71875 1.703125 
L 7.71875 11.625 
Q 12.109375 9.234375 16.796875 8.0625 
Q 21.484375 6.890625 26.703125 6.890625 
Q 35.15625 6.890625 40.078125 11.328125 
Q 45.015625 15.765625 45.015625 23.390625 
Q 45.015625 31 40.078125 35.4375 
Q 35.15625 39.890625 26.703125 39.890625 
Q 22.75 39.890625 18.8125 39.015625 
Q 14.890625 38.140625 10.796875 36.28125 
z
" id="DejaVuSans-53"/>
      </defs>
      <g transform="translate(119.349659 322.182437)scale(0.1 -0.1)">
       <use xlink:href="#DejaVuSans-53"/>
      </g>
     </g>
    </g>
    <g id="xtick_3">
     <g id="line2d_3">
      <g>
       <use style="stroke:#000000;stroke-width:0.8;" x="171.229091" xlink:href="#m746d79d244" y="307.584"/>
      </g>
     </g>
     <g id="text_3">
      <!-- 10 -->
      <defs>
       <path d="M 12.40625 8.296875 
L 28.515625 8.296875 
L 28.515625 63.921875 
L 10.984375 60.40625 
L 10.984375 69.390625 
L 28.421875 72.90625 
L 38.28125 72.90625 
L 38.28125 8.296875 
L 54.390625 8.296875 
L 54.390625 0 
L 12.40625 0 
z
" id="DejaVuSans-49"/>
      </defs>
      <g transform="translate(164.866591 322.182437)scale(0.1 -0.1)">
       <use xlink:href="#DejaVuSans-49"/>
       <use x="63.623047" xlink:href="#DejaVuSans-48"/>
      </g>
     </g>
    </g>
    <g id="xtick_4">
     <g id="line2d_4">
      <g>
       <use style="stroke:#000000;stroke-width:0.8;" x="219.927273" xlink:href="#m746d79d244" y="307.584"/>
      </g>
     </g>
     <g id="text_4">
      <!-- 15 -->
      <g transform="translate(213.564773 322.182437)scale(0.1 -0.1)">
       <use xlink:href="#DejaVuSans-49"/>
       <use x="63.623047" xlink:href="#DejaVuSans-53"/>
      </g>
     </g>
    </g>
    <g id="xtick_5">
     <g id="line2d_5">
      <g>
       <use style="stroke:#000000;stroke-width:0.8;" x="268.625455" xlink:href="#m746d79d244" y="307.584"/>
      </g>
     </g>
     <g id="text_5">
      <!-- 20 -->
      <defs>
       <path d="M 19.1875 8.296875 
L 53.609375 8.296875 
L 53.609375 0 
L 7.328125 0 
L 7.328125 8.296875 
Q 12.9375 14.109375 22.625 23.890625 
Q 32.328125 33.6875 34.8125 36.53125 
Q 39.546875 41.84375 41.421875 45.53125 
Q 43.3125 49.21875 43.3125 52.78125 
Q 43.3125 58.59375 39.234375 62.25 
Q 35.15625 65.921875 28.609375 65.921875 
Q 23.96875 65.921875 18.8125 64.3125 
Q 13.671875 62.703125 7.8125 59.421875 
L 7.8125 69.390625 
Q 13.765625 71.78125 18.9375 73 
Q 24.125 74.21875 28.421875 74.21875 
Q 39.75 74.21875 46.484375 68.546875 
Q 53.21875 62.890625 53.21875 53.421875 
Q 53.21875 48.921875 51.53125 44.890625 
Q 49.859375 40.875 45.40625 35.40625 
Q 44.1875 33.984375 37.640625 27.21875 
Q 31.109375 20.453125 19.1875 8.296875 
z
" id="DejaVuSans-50"/>
      </defs>
      <g transform="translate(262.262955 322.182437)scale(0.1 -0.1)">
       <use xlink:href="#DejaVuSans-50"/>
       <use x="63.623047" xlink:href="#DejaVuSans-48"/>
      </g>
     </g>
    </g>
    <g id="xtick_6">
     <g id="line2d_6">
      <g>
       <use style="stroke:#000000;stroke-width:0.8;" x="317.323636" xlink:href="#m746d79d244" y="307.584"/>
      </g>
     </g>
     <g id="text_6">
      <!-- 25 -->
      <g transform="translate(310.961136 322.182437)scale(0.1 -0.1)">
       <use xlink:href="#DejaVuSans-50"/>
       <use x="63.623047" xlink:href="#DejaVuSans-53"/>
      </g>
     </g>
    </g>
    <g id="xtick_7">
     <g id="line2d_7">
      <g>
       <use style="stroke:#000000;stroke-width:0.8;" x="366.021818" xlink:href="#m746d79d244" y="307.584"/>
      </g>
     </g>
     <g id="text_7">
      <!-- 30 -->
      <defs>
       <path d="M 40.578125 39.3125 
Q 47.65625 37.796875 51.625 33 
Q 55.609375 28.21875 55.609375 21.1875 
Q 55.609375 10.40625 48.1875 4.484375 
Q 40.765625 -1.421875 27.09375 -1.421875 
Q 22.515625 -1.421875 17.65625 -0.515625 
Q 12.796875 0.390625 7.625 2.203125 
L 7.625 11.71875 
Q 11.71875 9.328125 16.59375 8.109375 
Q 21.484375 6.890625 26.8125 6.890625 
Q 36.078125 6.890625 40.9375 10.546875 
Q 45.796875 14.203125 45.796875 21.1875 
Q 45.796875 27.640625 41.28125 31.265625 
Q 36.765625 34.90625 28.71875 34.90625 
L 20.21875 34.90625 
L 20.21875 43.015625 
L 29.109375 43.015625 
Q 36.375 43.015625 40.234375 45.921875 
Q 44.09375 48.828125 44.09375 54.296875 
Q 44.09375 59.90625 40.109375 62.90625 
Q 36.140625 65.921875 28.71875 65.921875 
Q 24.65625 65.921875 20.015625 65.03125 
Q 15.375 64.15625 9.8125 62.3125 
L 9.8125 71.09375 
Q 15.4375 72.65625 20.34375 73.4375 
Q 25.25 74.21875 29.59375 74.21875 
Q 40.828125 74.21875 47.359375 69.109375 
Q 53.90625 64.015625 53.90625 55.328125 
Q 53.90625 49.265625 50.4375 45.09375 
Q 46.96875 40.921875 40.578125 39.3125 
z
" id="DejaVuSans-51"/>
      </defs>
      <g transform="translate(359.659318 322.182437)scale(0.1 -0.1)">
       <use xlink:href="#DejaVuSans-51"/>
       <use x="63.623047" xlink:href="#DejaVuSans-48"/>
      </g>
     </g>
    </g>
    <g id="xtick_8">
     <g id="line2d_8">
      <g>
       <use style="stroke:#000000;stroke-width:0.8;" x="414.72" xlink:href="#m746d79d244" y="307.584"/>
      </g>
     </g>
     <g id="text_8">
      <!-- 35 -->
      <g transform="translate(408.3575 322.182437)scale(0.1 -0.1)">
       <use xlink:href="#DejaVuSans-51"/>
       <use x="63.623047" xlink:href="#DejaVuSans-53"/>
      </g>
     </g>
    </g>
    <g id="text_9">
     <!-- Time (ms) -->
     <defs>
      <path d="M -0.296875 72.90625 
L 61.375 72.90625 
L 61.375 64.59375 
L 35.5 64.59375 
L 35.5 0 
L 25.59375 0 
L 25.59375 64.59375 
L -0.296875 64.59375 
z
" id="DejaVuSans-84"/>
      <path d="M 9.421875 54.6875 
L 18.40625 54.6875 
L 18.40625 0 
L 9.421875 0 
z
M 9.421875 75.984375 
L 18.40625 75.984375 
L 18.40625 64.59375 
L 9.421875 64.59375 
z
" id="DejaVuSans-105"/>
      <path d="M 52 44.1875 
Q 55.375 50.25 60.0625 53.125 
Q 64.75 56 71.09375 56 
Q 79.640625 56 84.28125 50.015625 
Q 88.921875 44.046875 88.921875 33.015625 
L 88.921875 0 
L 79.890625 0 
L 79.890625 32.71875 
Q 79.890625 40.578125 77.09375 44.375 
Q 74.3125 48.1875 68.609375 48.1875 
Q 61.625 48.1875 57.5625 43.546875 
Q 53.515625 38.921875 53.515625 30.90625 
L 53.515625 0 
L 44.484375 0 
L 44.484375 32.71875 
Q 44.484375 40.625 41.703125 44.40625 
Q 38.921875 48.1875 33.109375 48.1875 
Q 26.21875 48.1875 22.15625 43.53125 
Q 18.109375 38.875 18.109375 30.90625 
L 18.109375 0 
L 9.078125 0 
L 9.078125 54.6875 
L 18.109375 54.6875 
L 18.109375 46.1875 
Q 21.1875 51.21875 25.484375 53.609375 
Q 29.78125 56 35.6875 56 
Q 41.65625 56 45.828125 52.96875 
Q 50 49.953125 52 44.1875 
z
" id="DejaVuSans-109"/>
      <path d="M 56.203125 29.59375 
L 56.203125 25.203125 
L 14.890625 25.203125 
Q 15.484375 15.921875 20.484375 11.0625 
Q 25.484375 6.203125 34.421875 6.203125 
Q 39.59375 6.203125 44.453125 7.46875 
Q 49.3125 8.734375 54.109375 11.28125 
L 54.109375 2.78125 
Q 49.265625 0.734375 44.1875 -0.34375 
Q 39.109375 -1.421875 33.890625 -1.421875 
Q 20.796875 -1.421875 13.15625 6.1875 
Q 5.515625 13.8125 5.515625 26.8125 
Q 5.515625 40.234375 12.765625 48.109375 
Q 20.015625 56 32.328125 56 
Q 43.359375 56 49.78125 48.890625 
Q 56.203125 41.796875 56.203125 29.59375 
z
M 47.21875 32.234375 
Q 47.125 39.59375 43.09375 43.984375 
Q 39.0625 48.390625 32.421875 48.390625 
Q 24.90625 48.390625 20.390625 44.140625 
Q 15.875 39.890625 15.1875 32.171875 
z
" id="DejaVuSans-101"/>
      <path id="DejaVuSans-32"/>
      <path d="M 31 75.875 
Q 24.46875 64.65625 21.28125 53.65625 
Q 18.109375 42.671875 18.109375 31.390625 
Q 18.109375 20.125 21.3125 9.0625 
Q 24.515625 -2 31 -13.1875 
L 23.1875 -13.1875 
Q 15.875 -1.703125 12.234375 9.375 
Q 8.59375 20.453125 8.59375 31.390625 
Q 8.59375 42.28125 12.203125 53.3125 
Q 15.828125 64.359375 23.1875 75.875 
z
" id="DejaVuSans-40"/>
      <path d="M 44.28125 53.078125 
L 44.28125 44.578125 
Q 40.484375 46.53125 36.375 47.5 
Q 32.28125 48.484375 27.875 48.484375 
Q 21.1875 48.484375 17.84375 46.4375 
Q 14.5 44.390625 14.5 40.28125 
Q 14.5 37.15625 16.890625 35.375 
Q 19.28125 33.59375 26.515625 31.984375 
L 29.59375 31.296875 
Q 39.15625 29.25 43.1875 25.515625 
Q 47.21875 21.78125 47.21875 15.09375 
Q 47.21875 7.46875 41.1875 3.015625 
Q 35.15625 -1.421875 24.609375 -1.421875 
Q 20.21875 -1.421875 15.453125 -0.5625 
Q 10.6875 0.296875 5.421875 2 
L 5.421875 11.28125 
Q 10.40625 8.6875 15.234375 7.390625 
Q 20.0625 6.109375 24.8125 6.109375 
Q 31.15625 6.109375 34.5625 8.28125 
Q 37.984375 10.453125 37.984375 14.40625 
Q 37.984375 18.0625 35.515625 20.015625 
Q 33.0625 21.96875 24.703125 23.78125 
L 21.578125 24.515625 
Q 13.234375 26.265625 9.515625 29.90625 
Q 5.8125 33.546875 5.8125 39.890625 
Q 5.8125 47.609375 11.28125 51.796875 
Q 16.75 56 26.8125 56 
Q 31.78125 56 36.171875 55.265625 
Q 40.578125 54.546875 44.28125 53.078125 
z
" id="DejaVuSans-115"/>
      <path d="M 8.015625 75.875 
L 15.828125 75.875 
Q 23.140625 64.359375 26.78125 53.3125 
Q 30.421875 42.28125 30.421875 31.390625 
Q 30.421875 20.453125 26.78125 9.375 
Q 23.140625 -1.703125 15.828125 -13.1875 
L 8.015625 -13.1875 
Q 14.5 -2 17.703125 9.0625 
Q 20.90625 20.125 20.90625 31.390625 
Q 20.90625 42.671875 17.703125 53.65625 
Q 14.5 64.65625 8.015625 75.875 
z
" id="DejaVuSans-41"/>
     </defs>
     <g transform="translate(210.806875 335.860562)scale(0.1 -0.1)">
      <use xlink:href="#DejaVuSans-84"/>
      <use x="61.037109" xlink:href="#DejaVuSans-105"/>
      <use x="88.820312" xlink:href="#DejaVuSans-109"/>
      <use x="186.232422" xlink:href="#DejaVuSans-101"/>
      <use x="247.755859" xlink:href="#DejaVuSans-32"/>
      <use x="279.542969" xlink:href="#DejaVuSans-40"/>
      <use x="318.556641" xlink:href="#DejaVuSans-109"/>
      <use x="415.96875" xlink:href="#DejaVuSans-115"/>
      <use x="468.068359" xlink:href="#DejaVuSans-41"/>
     </g>
    </g>
   </g>
   <g id="matplotlib.axis_2">
    <g id="ytick_1">
     <g id="line2d_9">
      <defs>
       <path d="M 0 0 
L -3.5 0 
" id="mee23df21e9" style="stroke:#000000;stroke-width:0.8;"/>
      </defs>
      <g>
       <use style="stroke:#000000;stroke-width:0.8;" x="57.6" xlink:href="#mee23df21e9" y="295.491768"/>
      </g>
     </g>
     <g id="text_10">
      <!-- −240 -->
      <defs>
       <path d="M 10.59375 35.5 
L 73.1875 35.5 
L 73.1875 27.203125 
L 10.59375 27.203125 
z
" id="DejaVuSans-8722"/>
       <path d="M 37.796875 64.3125 
L 12.890625 25.390625 
L 37.796875 25.390625 
z
M 35.203125 72.90625 
L 47.609375 72.90625 
L 47.609375 25.390625 
L 58.015625 25.390625 
L 58.015625 17.1875 
L 47.609375 17.1875 
L 47.609375 0 
L 37.796875 0 
L 37.796875 17.1875 
L 4.890625 17.1875 
L 4.890625 26.703125 
z
" id="DejaVuSans-52"/>
      </defs>
      <g transform="translate(23.132812 299.290987)scale(0.1 -0.1)">
       <use xlink:href="#DejaVuSans-8722"/>
       <use x="83.789062" xlink:href="#DejaVuSans-50"/>
       <use x="147.412109" xlink:href="#DejaVuSans-52"/>
       <use x="211.035156" xlink:href="#DejaVuSans-48"/>
      </g>
     </g>
    </g>
    <g id="ytick_2">
     <g id="line2d_10">
      <g>
       <use style="stroke:#000000;stroke-width:0.8;" x="57.6" xlink:href="#mee23df21e9" y="235.009884"/>
      </g>
     </g>
     <g id="text_11">
      <!-- −120 -->
      <g transform="translate(23.132812 238.809103)scale(0.1 -0.1)">
       <use xlink:href="#DejaVuSans-8722"/>
       <use x="83.789062" xlink:href="#DejaVuSans-49"/>
       <use x="147.412109" xlink:href="#DejaVuSans-50"/>
       <use x="211.035156" xlink:href="#DejaVuSans-48"/>
      </g>
     </g>
    </g>
    <g id="ytick_3">
     <g id="line2d_11">
      <g>
       <use style="stroke:#000000;stroke-width:0.8;" x="57.6" xlink:href="#mee23df21e9" y="174.528"/>
      </g>
     </g>
     <g id="text_12">
      <!-- 0 -->
      <g transform="translate(44.2375 178.327219)scale(0.1 -0.1)">
       <use xlink:href="#DejaVuSans-48"/>
      </g>
     </g>
    </g>
    <g id="ytick_4">
     <g id="line2d_12">
      <g>
       <use style="stroke:#000000;stroke-width:0.8;" x="57.6" xlink:href="#mee23df21e9" y="114.046116"/>
      </g>
     </g>
     <g id="text_13">
      <!-- 120 -->
      <g transform="translate(31.5125 117.845335)scale(0.1 -0.1)">
       <use xlink:href="#DejaVuSans-49"/>
       <use x="63.623047" xlink:href="#DejaVuSans-50"/>
       <use x="127.246094" xlink:href="#DejaVuSans-48"/>
      </g>
     </g>
    </g>
    <g id="ytick_5">
     <g id="line2d_13">
      <g>
       <use style="stroke:#000000;stroke-width:0.8;" x="57.6" xlink:href="#mee23df21e9" y="53.564232"/>
      </g>
     </g>
     <g id="text_14">
      <!-- 240 -->
      <g transform="translate(31.5125 57.36345)scale(0.1 -0.1)">
       <use xlink:href="#DejaVuSans-50"/>
       <use x="63.623047" xlink:href="#DejaVuSans-52"/>
       <use x="127.246094" xlink:href="#DejaVuSans-48"/>
      </g>
     </g>
    </g>
    <g id="text_15">
     <!-- Voltage -->
     <defs>
      <path d="M 28.609375 0 
L 0.78125 72.90625 
L 11.078125 72.90625 
L 34.1875 11.53125 
L 57.328125 72.90625 
L 67.578125 72.90625 
L 39.796875 0 
z
" id="DejaVuSans-86"/>
      <path d="M 30.609375 48.390625 
Q 23.390625 48.390625 19.1875 42.75 
Q 14.984375 37.109375 14.984375 27.296875 
Q 14.984375 17.484375 19.15625 11.84375 
Q 23.34375 6.203125 30.609375 6.203125 
Q 37.796875 6.203125 41.984375 11.859375 
Q 46.1875 17.53125 46.1875 27.296875 
Q 46.1875 37.015625 41.984375 42.703125 
Q 37.796875 48.390625 30.609375 48.390625 
z
M 30.609375 56 
Q 42.328125 56 49.015625 48.375 
Q 55.71875 40.765625 55.71875 27.296875 
Q 55.71875 13.875 49.015625 6.21875 
Q 42.328125 -1.421875 30.609375 -1.421875 
Q 18.84375 -1.421875 12.171875 6.21875 
Q 5.515625 13.875 5.515625 27.296875 
Q 5.515625 40.765625 12.171875 48.375 
Q 18.84375 56 30.609375 56 
z
" id="DejaVuSans-111"/>
      <path d="M 9.421875 75.984375 
L 18.40625 75.984375 
L 18.40625 0 
L 9.421875 0 
z
" id="DejaVuSans-108"/>
      <path d="M 18.3125 70.21875 
L 18.3125 54.6875 
L 36.8125 54.6875 
L 36.8125 47.703125 
L 18.3125 47.703125 
L 18.3125 18.015625 
Q 18.3125 11.328125 20.140625 9.421875 
Q 21.96875 7.515625 27.59375 7.515625 
L 36.8125 7.515625 
L 36.8125 0 
L 27.59375 0 
Q 17.1875 0 13.234375 3.875 
Q 9.28125 7.765625 9.28125 18.015625 
L 9.28125 47.703125 
L 2.6875 47.703125 
L 2.6875 54.6875 
L 9.28125 54.6875 
L 9.28125 70.21875 
z
" id="DejaVuSans-116"/>
      <path d="M 34.28125 27.484375 
Q 23.390625 27.484375 19.1875 25 
Q 14.984375 22.515625 14.984375 16.5 
Q 14.984375 11.71875 18.140625 8.90625 
Q 21.296875 6.109375 26.703125 6.109375 
Q 34.1875 6.109375 38.703125 11.40625 
Q 43.21875 16.703125 43.21875 25.484375 
L 43.21875 27.484375 
z
M 52.203125 31.203125 
L 52.203125 0 
L 43.21875 0 
L 43.21875 8.296875 
Q 40.140625 3.328125 35.546875 0.953125 
Q 30.953125 -1.421875 24.3125 -1.421875 
Q 15.921875 -1.421875 10.953125 3.296875 
Q 6 8.015625 6 15.921875 
Q 6 25.140625 12.171875 29.828125 
Q 18.359375 34.515625 30.609375 34.515625 
L 43.21875 34.515625 
L 43.21875 35.40625 
Q 43.21875 41.609375 39.140625 45 
Q 35.0625 48.390625 27.6875 48.390625 
Q 23 48.390625 18.546875 47.265625 
Q 14.109375 46.140625 10.015625 43.890625 
L 10.015625 52.203125 
Q 14.9375 54.109375 19.578125 55.046875 
Q 24.21875 56 28.609375 56 
Q 40.484375 56 46.34375 49.84375 
Q 52.203125 43.703125 52.203125 31.203125 
z
" id="DejaVuSans-97"/>
      <path d="M 45.40625 27.984375 
Q 45.40625 37.75 41.375 43.109375 
Q 37.359375 48.484375 30.078125 48.484375 
Q 22.859375 48.484375 18.828125 43.109375 
Q 14.796875 37.75 14.796875 27.984375 
Q 14.796875 18.265625 18.828125 12.890625 
Q 22.859375 7.515625 30.078125 7.515625 
Q 37.359375 7.515625 41.375 12.890625 
Q 45.40625 18.265625 45.40625 27.984375 
z
M 54.390625 6.78125 
Q 54.390625 -7.171875 48.1875 -13.984375 
Q 42 -20.796875 29.203125 -20.796875 
Q 24.46875 -20.796875 20.265625 -20.09375 
Q 16.0625 -19.390625 12.109375 -17.921875 
L 12.109375 -9.1875 
Q 16.0625 -11.328125 19.921875 -12.34375 
Q 23.78125 -13.375 27.78125 -13.375 
Q 36.625 -13.375 41.015625 -8.765625 
Q 45.40625 -4.15625 45.40625 5.171875 
L 45.40625 9.625 
Q 42.625 4.78125 38.28125 2.390625 
Q 33.9375 0 27.875 0 
Q 17.828125 0 11.671875 7.65625 
Q 5.515625 15.328125 5.515625 27.984375 
Q 5.515625 40.671875 11.671875 48.328125 
Q 17.828125 56 27.875 56 
Q 33.9375 56 38.28125 53.609375 
Q 42.625 51.21875 45.40625 46.390625 
L 45.40625 54.6875 
L 54.390625 54.6875 
z
" id="DejaVuSans-103"/>
     </defs>
     <g transform="translate(17.053125 193.666281)rotate(-90)scale(0.1 -0.1)">
      <use xlink:href="#DejaVuSans-86"/>
      <use x="68.298828" xlink:href="#DejaVuSans-111"/>
      <use x="129.480469" xlink:href="#DejaVuSans-108"/>
      <use x="157.263672" xlink:href="#DejaVuSans-116"/>
      <use x="196.472656" xlink:href="#DejaVuSans-97"/>
      <use x="257.751953" xlink:href="#DejaVuSans-103"/>
      <use x="321.228516" xlink:href="#DejaVuSans-101"/>
     </g>
    </g>
   </g>
   <g id="line2d_14">
    <path clip-path="url(#pf626042515)" d="M 73.832727 174.528 
L 80.358447 159.412793 
L 85.252736 148.655176 
L 88.515596 141.975204 
L 91.778456 135.813774 
L 95.041316 130.269035 
L 98.304175 125.429308 
L 99.935605 123.29839 
L 101.567035 121.371689 
L 103.198465 119.656884 
L 104.829895 118.160812 
L 106.461325 116.889435 
L 108.092755 115.847823 
L 109.724185 115.040127 
L 111.355614 114.469568 
L 112.987044 114.138419 
L 114.618474 114.048 
L 116.249904 114.198672 
L 117.881334 114.589835 
L 119.512764 115.219929 
L 121.144194 116.086443 
L 122.775624 117.185921 
L 124.407053 118.513982 
L 126.038483 120.065331 
L 127.669913 121.833785 
L 129.301343 123.812293 
L 130.932773 125.992968 
L 134.195633 130.92528 
L 137.458492 136.552152 
L 140.721352 142.783952 
L 143.984212 149.521412 
L 148.878502 160.339161 
L 157.035651 179.297151 
L 163.56137 194.21396 
L 166.82423 201.260611 
L 170.08709 207.881431 
L 173.34995 213.970955 
L 176.61281 219.432181 
L 179.875669 224.178116 
L 181.507099 226.258744 
L 183.138529 228.133159 
L 184.769959 229.793888 
L 186.401389 231.234311 
L 188.032819 232.448686 
L 189.664249 233.432172 
L 191.295678 234.180849 
L 192.927108 234.691732 
L 194.558538 234.962785 
L 196.189968 234.992927 
L 197.821398 234.782038 
L 199.452828 234.330959 
L 201.084258 233.641488 
L 202.715688 232.716373 
L 204.347117 231.559302 
L 205.978547 230.174887 
L 207.609977 228.568648 
L 209.241407 226.746987 
L 210.872837 224.717165 
L 212.504267 222.487275 
L 215.767127 217.463607 
L 219.029986 211.756005 
L 222.292846 205.455388 
L 225.555706 198.66212 
L 230.449995 187.786934 
L 246.764294 150.39388 
L 250.027154 143.600612 
L 253.290014 137.299995 
L 256.552873 131.592393 
L 259.815733 126.568725 
L 261.447163 124.338835 
L 263.078593 122.309013 
L 264.710023 120.487352 
L 266.341453 118.881113 
L 267.972883 117.496698 
L 269.604312 116.339627 
L 271.235742 115.414512 
L 272.867172 114.725041 
L 274.498602 114.273962 
L 276.130032 114.063073 
L 277.761462 114.093215 
L 279.392892 114.364268 
L 281.024322 114.875151 
L 282.655751 115.623828 
L 284.287181 116.607314 
L 285.918611 117.821689 
L 287.550041 119.262112 
L 289.181471 120.922841 
L 290.812901 122.797256 
L 292.444331 124.877884 
L 295.70719 129.623819 
L 298.97005 135.085045 
L 302.23291 141.174569 
L 305.49577 147.795389 
L 308.75863 154.84204 
L 313.652919 165.963492 
L 325.072928 192.398791 
L 328.335788 199.534588 
L 331.598648 206.272048 
L 334.861508 212.503848 
L 338.124367 218.13072 
L 341.387227 223.063032 
L 343.018657 225.243707 
L 344.650087 227.222215 
L 346.281517 228.990669 
L 347.912947 230.542018 
L 349.544376 231.870079 
L 351.175806 232.969557 
L 352.807236 233.836071 
L 354.438666 234.466165 
L 356.070096 234.857328 
L 357.701526 235.008 
L 359.332956 234.917581 
L 360.964386 234.586432 
L 362.595815 234.015873 
L 364.227245 233.208177 
L 365.858675 232.166565 
L 367.490105 230.895188 
L 369.121535 229.399116 
L 370.752965 227.684311 
L 372.384395 225.75761 
L 374.015825 223.626692 
L 377.278684 218.786965 
L 380.541544 213.242226 
L 383.804404 207.080796 
L 387.067264 200.400824 
L 391.961553 189.643207 
L 398.487273 174.528 
L 398.487273 174.528 
" style="fill:none;stroke:#ff0000;stroke-linecap:square;stroke-width:1.5;"/>
   </g>
   <g id="line2d_15">
    <path clip-path="url(#pf626042515)" d="M 73.832727 174.528 
L 80.358447 189.643207 
L 85.252736 200.400824 
L 88.515596 207.080796 
L 91.778456 213.242226 
L 95.041316 218.786965 
L 98.304175 223.626692 
L 99.935605 225.75761 
L 101.567035 227.684311 
L 103.198465 229.399116 
L 104.829895 230.895188 
L 106.461325 232.166565 
L 108.092755 233.208177 
L 109.724185 234.015873 
L 111.355614 234.586432 
L 112.987044 234.917581 
L 114.618474 235.008 
L 116.249904 234.857328 
L 117.881334 234.466165 
L 119.512764 233.836071 
L 121.144194 232.969557 
L 122.775624 231.870079 
L 124.407053 230.542018 
L 126.038483 228.990669 
L 127.669913 227.222215 
L 129.301343 225.243707 
L 130.932773 223.063032 
L 134.195633 218.13072 
L 137.458492 212.503848 
L 140.721352 206.272048 
L 143.984212 199.534588 
L 148.878502 188.716839 
L 157.035651 169.758849 
L 163.56137 154.84204 
L 166.82423 147.795389 
L 170.08709 141.174569 
L 173.34995 135.085045 
L 176.61281 129.623819 
L 179.875669 124.877884 
L 181.507099 122.797256 
L 183.138529 120.922841 
L 184.769959 119.262112 
L 186.401389 117.821689 
L 188.032819 116.607314 
L 189.664249 115.623828 
L 191.295678 114.875151 
L 192.927108 114.364268 
L 194.558538 114.093215 
L 196.189968 114.063073 
L 197.821398 114.273962 
L 199.452828 114.725041 
L 201.084258 115.414512 
L 202.715688 116.339627 
L 204.347117 117.496698 
L 205.978547 118.881113 
L 207.609977 120.487352 
L 209.241407 122.309013 
L 210.872837 124.338835 
L 212.504267 126.568725 
L 215.767127 131.592393 
L 219.029986 137.299995 
L 222.292846 143.600612 
L 225.555706 150.39388 
L 230.449995 161.269066 
L 246.764294 198.66212 
L 250.027154 205.455388 
L 253.290014 211.756005 
L 256.552873 217.463607 
L 259.815733 222.487275 
L 261.447163 224.717165 
L 263.078593 226.746987 
L 264.710023 228.568648 
L 266.341453 230.174887 
L 267.972883 231.559302 
L 269.604312 232.716373 
L 271.235742 233.641488 
L 272.867172 234.330959 
L 274.498602 234.782038 
L 276.130032 234.992927 
L 277.761462 234.962785 
L 279.392892 234.691732 
L 281.024322 234.180849 
L 282.655751 233.432172 
L 284.287181 232.448686 
L 285.918611 231.234311 
L 287.550041 229.793888 
L 289.181471 228.133159 
L 290.812901 226.258744 
L 292.444331 224.178116 
L 295.70719 219.432181 
L 298.97005 213.970955 
L 302.23291 207.881431 
L 305.49577 201.260611 
L 308.75863 194.21396 
L 313.652919 183.092508 
L 325.072928 156.657209 
L 328.335788 149.521412 
L 331.598648 142.783952 
L 334.861508 136.552152 
L 338.124367 130.92528 
L 341.387227 125.992968 
L 343.018657 123.812293 
L 344.650087 121.833785 
L 346.281517 120.065331 
L 347.912947 118.513982 
L 349.544376 117.185921 
L 351.175806 116.086443 
L 352.807236 115.219929 
L 354.438666 114.589835 
L 356.070096 114.198672 
L 357.701526 114.048 
L 359.332956 114.138419 
L 360.964386 114.469568 
L 362.595815 115.040127 
L 364.227245 115.847823 
L 365.858675 116.889435 
L 367.490105 118.160812 
L 369.121535 119.656884 
L 370.752965 121.371689 
L 372.384395 123.29839 
L 374.015825 125.429308 
L 377.278684 130.269035 
L 380.541544 135.813774 
L 383.804404 141.975204 
L 387.067264 148.655176 
L 391.961553 159.412793 
L 398.487273 174.528 
L 398.487273 174.528 
" style="fill:none;stroke:#0000ff;stroke-linecap:square;stroke-width:1.5;"/>
   </g>
   <g id="line2d_16">
    <path clip-path="url(#pf626042515)" d="M 73.832727 174.528 
L 80.358447 144.297586 
L 85.252736 122.782353 
L 88.515596 109.422408 
L 91.778456 97.099549 
L 95.041316 86.010069 
L 96.672746 80.983896 
L 98.304175 76.330617 
L 99.935605 72.068781 
L 101.567035 68.215378 
L 103.198465 64.785768 
L 104.829895 61.793623 
L 106.461325 59.25087 
L 108.092755 57.167646 
L 109.724185 55.552255 
L 111.355614 54.411135 
L 112.987044 53.748837 
L 114.618474 53.568 
L 116.249904 53.869345 
L 117.881334 54.651671 
L 119.512764 55.911859 
L 121.144194 57.644886 
L 122.775624 59.843843 
L 124.407053 62.499964 
L 126.038483 65.602663 
L 127.669913 69.13957 
L 129.301343 73.096586 
L 130.932773 77.457937 
L 132.564203 82.206238 
L 135.827063 92.78651 
L 139.089922 104.668865 
L 142.352782 117.664026 
L 145.615642 131.56499 
L 150.509931 153.62735 
L 163.56137 213.89992 
L 166.82423 227.993222 
L 170.08709 241.234863 
L 173.34995 253.41391 
L 176.61281 264.336362 
L 178.244239 269.271134 
L 179.875669 273.828231 
L 181.507099 277.989489 
L 183.138529 281.738319 
L 184.769959 285.059777 
L 186.401389 287.940623 
L 188.032819 290.369373 
L 189.664249 292.336345 
L 191.295678 293.833698 
L 192.927108 294.855465 
L 194.558538 295.39757 
L 196.189968 295.457854 
L 197.821398 295.036076 
L 199.452828 294.133918 
L 201.084258 292.754975 
L 202.715688 290.904745 
L 204.347117 288.590603 
L 205.978547 285.821774 
L 207.609977 282.609296 
L 209.241407 278.965974 
L 210.872837 274.906331 
L 212.504267 270.446551 
L 214.135697 265.604411 
L 217.398556 254.851709 
L 220.661416 242.819509 
L 223.924276 229.699473 
L 227.187136 215.700596 
L 232.081425 193.545203 
L 245.132864 133.355404 
L 248.395724 119.356527 
L 251.658584 106.236491 
L 254.921444 94.204291 
L 258.184303 83.451589 
L 259.815733 78.609449 
L 261.447163 74.149669 
L 263.078593 70.090026 
L 264.710023 66.446704 
L 266.341453 63.234226 
L 267.972883 60.465397 
L 269.604312 58.151255 
L 271.235742 56.301025 
L 272.867172 54.922082 
L 274.498602 54.019924 
L 276.130032 53.598146 
L 277.761462 53.65843 
L 279.392892 54.200535 
L 281.024322 55.222302 
L 282.655751 56.719655 
L 284.287181 58.686627 
L 285.918611 61.115377 
L 287.550041 63.996223 
L 289.181471 67.317681 
L 290.812901 71.066511 
L 292.444331 75.227769 
L 294.075761 79.784866 
L 295.70719 84.719638 
L 298.97005 95.64209 
L 302.23291 107.821137 
L 305.49577 121.062778 
L 308.75863 135.15608 
L 313.652919 157.398984 
L 325.072928 210.269582 
L 328.335788 224.541176 
L 331.598648 238.016095 
L 334.861508 250.479695 
L 338.124367 261.733439 
L 339.755797 266.849762 
L 341.387227 271.598063 
L 343.018657 275.959414 
L 344.650087 279.91643 
L 346.281517 283.453337 
L 347.912947 286.556036 
L 349.544376 289.212157 
L 351.175806 291.411114 
L 352.807236 293.144141 
L 354.438666 294.404329 
L 356.070096 295.186655 
L 357.701526 295.488 
L 359.332956 295.307163 
L 360.964386 294.644865 
L 362.595815 293.503745 
L 364.227245 291.888354 
L 365.858675 289.80513 
L 367.490105 287.262377 
L 369.121535 284.270232 
L 370.752965 280.840622 
L 372.384395 276.987219 
L 374.015825 272.725383 
L 375.647254 268.072104 
L 378.910114 257.666899 
L 382.172974 245.937351 
L 385.435834 233.070303 
L 388.698693 219.270718 
L 393.592983 197.306889 
L 398.487273 174.528 
L 398.487273 174.528 
" style="fill:none;stroke:#000000;stroke-linecap:square;stroke-width:1.5;"/>
   </g>
   <g id="patch_3">
    <path d="M 57.6 307.584 
L 57.6 41.472 
" style="fill:none;stroke:#000000;stroke-linecap:square;stroke-linejoin:miter;stroke-width:0.8;"/>
   </g>
   <g id="patch_4">
    <path d="M 414.72 307.584 
L 414.72 41.472 
" style="fill:none;stroke:#000000;stroke-linecap:square;stroke-linejoin:miter;stroke-width:0.8;"/>
   </g>
   <g id="patch_5">
    <path d="M 57.6 307.584 
L 414.72 307.584 
" style="fill:none;stroke:#000000;stroke-linecap:square;stroke-linejoin:miter;stroke-width:0.8;"/>
   </g>
   <g id="patch_6">
    <path d="M 57.6 41.472 
L 414.72 41.472 
" style="fill:none;stroke:#000000;stroke-linecap:square;stroke-linejoin:miter;stroke-width:0.8;"/>
   </g>
   <g id="text_16">
    <!-- Residential split phase power -->
    <defs>
     <path d="M 44.390625 34.1875 
Q 47.5625 33.109375 50.5625 29.59375 
Q 53.5625 26.078125 56.59375 19.921875 
L 66.609375 0 
L 56 0 
L 46.6875 18.703125 
Q 43.0625 26.03125 39.671875 28.421875 
Q 36.28125 30.8125 30.421875 30.8125 
L 19.671875 30.8125 
L 19.671875 0 
L 9.8125 0 
L 9.8125 72.90625 
L 32.078125 72.90625 
Q 44.578125 72.90625 50.734375 67.671875 
Q 56.890625 62.453125 56.890625 51.90625 
Q 56.890625 45.015625 53.6875 40.46875 
Q 50.484375 35.9375 44.390625 34.1875 
z
M 19.671875 64.796875 
L 19.671875 38.921875 
L 32.078125 38.921875 
Q 39.203125 38.921875 42.84375 42.21875 
Q 46.484375 45.515625 46.484375 51.90625 
Q 46.484375 58.296875 42.84375 61.546875 
Q 39.203125 64.796875 32.078125 64.796875 
z
" id="DejaVuSans-82"/>
     <path d="M 45.40625 46.390625 
L 45.40625 75.984375 
L 54.390625 75.984375 
L 54.390625 0 
L 45.40625 0 
L 45.40625 8.203125 
Q 42.578125 3.328125 38.25 0.953125 
Q 33.9375 -1.421875 27.875 -1.421875 
Q 17.96875 -1.421875 11.734375 6.484375 
Q 5.515625 14.40625 5.515625 27.296875 
Q 5.515625 40.1875 11.734375 48.09375 
Q 17.96875 56 27.875 56 
Q 33.9375 56 38.25 53.625 
Q 42.578125 51.265625 45.40625 46.390625 
z
M 14.796875 27.296875 
Q 14.796875 17.390625 18.875 11.75 
Q 22.953125 6.109375 30.078125 6.109375 
Q 37.203125 6.109375 41.296875 11.75 
Q 45.40625 17.390625 45.40625 27.296875 
Q 45.40625 37.203125 41.296875 42.84375 
Q 37.203125 48.484375 30.078125 48.484375 
Q 22.953125 48.484375 18.875 42.84375 
Q 14.796875 37.203125 14.796875 27.296875 
z
" id="DejaVuSans-100"/>
     <path d="M 54.890625 33.015625 
L 54.890625 0 
L 45.90625 0 
L 45.90625 32.71875 
Q 45.90625 40.484375 42.875 44.328125 
Q 39.84375 48.1875 33.796875 48.1875 
Q 26.515625 48.1875 22.3125 43.546875 
Q 18.109375 38.921875 18.109375 30.90625 
L 18.109375 0 
L 9.078125 0 
L 9.078125 54.6875 
L 18.109375 54.6875 
L 18.109375 46.1875 
Q 21.34375 51.125 25.703125 53.5625 
Q 30.078125 56 35.796875 56 
Q 45.21875 56 50.046875 50.171875 
Q 54.890625 44.34375 54.890625 33.015625 
z
" id="DejaVuSans-110"/>
     <path d="M 18.109375 8.203125 
L 18.109375 -20.796875 
L 9.078125 -20.796875 
L 9.078125 54.6875 
L 18.109375 54.6875 
L 18.109375 46.390625 
Q 20.953125 51.265625 25.265625 53.625 
Q 29.59375 56 35.59375 56 
Q 45.5625 56 51.78125 48.09375 
Q 58.015625 40.1875 58.015625 27.296875 
Q 58.015625 14.40625 51.78125 6.484375 
Q 45.5625 -1.421875 35.59375 -1.421875 
Q 29.59375 -1.421875 25.265625 0.953125 
Q 20.953125 3.328125 18.109375 8.203125 
z
M 48.6875 27.296875 
Q 48.6875 37.203125 44.609375 42.84375 
Q 40.53125 48.484375 33.40625 48.484375 
Q 26.265625 48.484375 22.1875 42.84375 
Q 18.109375 37.203125 18.109375 27.296875 
Q 18.109375 17.390625 22.1875 11.75 
Q 26.265625 6.109375 33.40625 6.109375 
Q 40.53125 6.109375 44.609375 11.75 
Q 48.6875 17.390625 48.6875 27.296875 
z
" id="DejaVuSans-112"/>
     <path d="M 54.890625 33.015625 
L 54.890625 0 
L 45.90625 0 
L 45.90625 32.71875 
Q 45.90625 40.484375 42.875 44.328125 
Q 39.84375 48.1875 33.796875 48.1875 
Q 26.515625 48.1875 22.3125 43.546875 
Q 18.109375 38.921875 18.109375 30.90625 
L 18.109375 0 
L 9.078125 0 
L 9.078125 75.984375 
L 18.109375 75.984375 
L 18.109375 46.1875 
Q 21.34375 51.125 25.703125 53.5625 
Q 30.078125 56 35.796875 56 
Q 45.21875 56 50.046875 50.171875 
Q 54.890625 44.34375 54.890625 33.015625 
z
" id="DejaVuSans-104"/>
     <path d="M 4.203125 54.6875 
L 13.1875 54.6875 
L 24.421875 12.015625 
L 35.59375 54.6875 
L 46.1875 54.6875 
L 57.421875 12.015625 
L 68.609375 54.6875 
L 77.59375 54.6875 
L 63.28125 0 
L 52.6875 0 
L 40.921875 44.828125 
L 29.109375 0 
L 18.5 0 
z
" id="DejaVuSans-119"/>
     <path d="M 41.109375 46.296875 
Q 39.59375 47.171875 37.8125 47.578125 
Q 36.03125 48 33.890625 48 
Q 26.265625 48 22.1875 43.046875 
Q 18.109375 38.09375 18.109375 28.8125 
L 18.109375 0 
L 9.078125 0 
L 9.078125 54.6875 
L 18.109375 54.6875 
L 18.109375 46.1875 
Q 20.953125 51.171875 25.484375 53.578125 
Q 30.03125 56 36.53125 56 
Q 37.453125 56 38.578125 55.875 
Q 39.703125 55.765625 41.0625 55.515625 
z
" id="DejaVuSans-114"/>
    </defs>
    <g transform="translate(147.85125 35.472)scale(0.12 -0.12)">
     <use xlink:href="#DejaVuSans-82"/>
     <use x="69.419922" xlink:href="#DejaVuSans-101"/>
     <use x="130.943359" xlink:href="#DejaVuSans-115"/>
     <use x="183.042969" xlink:href="#DejaVuSans-105"/>
     <use x="210.826172" xlink:href="#DejaVuSans-100"/>
     <use x="274.302734" xlink:href="#DejaVuSans-101"/>
     <use x="335.826172" xlink:href="#DejaVuSans-110"/>
     <use x="399.205078" xlink:href="#DejaVuSans-116"/>
     <use x="438.414062" xlink:href="#DejaVuSans-105"/>
     <use x="466.197266" xlink:href="#DejaVuSans-97"/>
     <use x="527.476562" xlink:href="#DejaVuSans-108"/>
     <use x="555.259766" xlink:href="#DejaVuSans-32"/>
     <use x="587.046875" xlink:href="#DejaVuSans-115"/>
     <use x="639.146484" xlink:href="#DejaVuSans-112"/>
     <use x="702.623047" xlink:href="#DejaVuSans-108"/>
     <use x="730.40625" xlink:href="#DejaVuSans-105"/>
     <use x="758.189453" xlink:href="#DejaVuSans-116"/>
     <use x="797.398438" xlink:href="#DejaVuSans-32"/>
     <use x="829.185547" xlink:href="#DejaVuSans-112"/>
     <use x="892.662109" xlink:href="#DejaVuSans-104"/>
     <use x="956.041016" xlink:href="#DejaVuSans-97"/>
     <use x="1017.320312" xlink:href="#DejaVuSans-115"/>
     <use x="1069.419922" xlink:href="#DejaVuSans-101"/>
     <use x="1130.943359" xlink:href="#DejaVuSans-32"/>
     <use x="1162.730469" xlink:href="#DejaVuSans-112"/>
     <use x="1226.207031" xlink:href="#DejaVuSans-111"/>
     <use x="1287.388672" xlink:href="#DejaVuSans-119"/>
     <use x="1369.175781" xlink:href="#DejaVuSans-101"/>
     <use x="1430.699219" xlink:href="#DejaVuSans-114"/>
    </g>
   </g>
   <g id="legend_1">
    <g id="patch_7">
     <path d="M 280.209063 93.506375 
L 407.72 93.506375 
Q 409.72 93.506375 409.72 91.506375 
L 409.72 48.472 
Q 409.72 46.472 407.72 46.472 
L 280.209063 46.472 
Q 278.209063 46.472 278.209063 48.472 
L 278.209063 91.506375 
Q 278.209063 93.506375 280.209063 93.506375 
z
" style="fill:#ffffff;opacity:0.8;stroke:#cccccc;stroke-linejoin:miter;"/>
    </g>
    <g id="line2d_17">
     <path d="M 282.209063 54.570438 
L 302.209063 54.570438 
" style="fill:none;stroke:#ff0000;stroke-linecap:square;stroke-width:1.5;"/>
    </g>
    <g id="line2d_18"/>
    <g id="text_17">
     <!-- Phase 1 to neutral -->
     <defs>
      <path d="M 19.671875 64.796875 
L 19.671875 37.40625 
L 32.078125 37.40625 
Q 38.96875 37.40625 42.71875 40.96875 
Q 46.484375 44.53125 46.484375 51.125 
Q 46.484375 57.671875 42.71875 61.234375 
Q 38.96875 64.796875 32.078125 64.796875 
z
M 9.8125 72.90625 
L 32.078125 72.90625 
Q 44.34375 72.90625 50.609375 67.359375 
Q 56.890625 61.8125 56.890625 51.125 
Q 56.890625 40.328125 50.609375 34.8125 
Q 44.34375 29.296875 32.078125 29.296875 
L 19.671875 29.296875 
L 19.671875 0 
L 9.8125 0 
z
" id="DejaVuSans-80"/>
      <path d="M 8.5 21.578125 
L 8.5 54.6875 
L 17.484375 54.6875 
L 17.484375 21.921875 
Q 17.484375 14.15625 20.5 10.265625 
Q 23.53125 6.390625 29.59375 6.390625 
Q 36.859375 6.390625 41.078125 11.03125 
Q 45.3125 15.671875 45.3125 23.6875 
L 45.3125 54.6875 
L 54.296875 54.6875 
L 54.296875 0 
L 45.3125 0 
L 45.3125 8.40625 
Q 42.046875 3.421875 37.71875 1 
Q 33.40625 -1.421875 27.6875 -1.421875 
Q 18.265625 -1.421875 13.375 4.4375 
Q 8.5 10.296875 8.5 21.578125 
z
M 31.109375 56 
z
" id="DejaVuSans-117"/>
     </defs>
     <g transform="translate(310.209063 58.070438)scale(0.1 -0.1)">
      <use xlink:href="#DejaVuSans-80"/>
      <use x="60.302734" xlink:href="#DejaVuSans-104"/>
      <use x="123.681641" xlink:href="#DejaVuSans-97"/>
      <use x="184.960938" xlink:href="#DejaVuSans-115"/>
      <use x="237.060547" xlink:href="#DejaVuSans-101"/>
      <use x="298.583984" xlink:href="#DejaVuSans-32"/>
      <use x="330.371094" xlink:href="#DejaVuSans-49"/>
      <use x="393.994141" xlink:href="#DejaVuSans-32"/>
      <use x="425.78125" xlink:href="#DejaVuSans-116"/>
      <use x="464.990234" xlink:href="#DejaVuSans-111"/>
      <use x="526.171875" xlink:href="#DejaVuSans-32"/>
      <use x="557.958984" xlink:href="#DejaVuSans-110"/>
      <use x="621.337891" xlink:href="#DejaVuSans-101"/>
      <use x="682.861328" xlink:href="#DejaVuSans-117"/>
      <use x="746.240234" xlink:href="#DejaVuSans-116"/>
      <use x="785.449219" xlink:href="#DejaVuSans-114"/>
      <use x="826.5625" xlink:href="#DejaVuSans-97"/>
      <use x="887.841797" xlink:href="#DejaVuSans-108"/>
     </g>
    </g>
    <g id="line2d_19">
     <path d="M 282.209063 69.248563 
L 302.209063 69.248563 
" style="fill:none;stroke:#0000ff;stroke-linecap:square;stroke-width:1.5;"/>
    </g>
    <g id="line2d_20"/>
    <g id="text_18">
     <!-- Phase 2 to neutral -->
     <g transform="translate(310.209063 72.748563)scale(0.1 -0.1)">
      <use xlink:href="#DejaVuSans-80"/>
      <use x="60.302734" xlink:href="#DejaVuSans-104"/>
      <use x="123.681641" xlink:href="#DejaVuSans-97"/>
      <use x="184.960938" xlink:href="#DejaVuSans-115"/>
      <use x="237.060547" xlink:href="#DejaVuSans-101"/>
      <use x="298.583984" xlink:href="#DejaVuSans-32"/>
      <use x="330.371094" xlink:href="#DejaVuSans-50"/>
      <use x="393.994141" xlink:href="#DejaVuSans-32"/>
      <use x="425.78125" xlink:href="#DejaVuSans-116"/>
      <use x="464.990234" xlink:href="#DejaVuSans-111"/>
      <use x="526.171875" xlink:href="#DejaVuSans-32"/>
      <use x="557.958984" xlink:href="#DejaVuSans-110"/>
      <use x="621.337891" xlink:href="#DejaVuSans-101"/>
      <use x="682.861328" xlink:href="#DejaVuSans-117"/>
      <use x="746.240234" xlink:href="#DejaVuSans-116"/>
      <use x="785.449219" xlink:href="#DejaVuSans-114"/>
      <use x="826.5625" xlink:href="#DejaVuSans-97"/>
      <use x="887.841797" xlink:href="#DejaVuSans-108"/>
     </g>
    </g>
    <g id="line2d_21">
     <path d="M 282.209063 83.926688 
L 302.209063 83.926688 
" style="fill:none;stroke:#000000;stroke-linecap:square;stroke-width:1.5;"/>
    </g>
    <g id="line2d_22"/>
    <g id="text_19">
     <!-- Phase 1 to phase 2 -->
     <g transform="translate(310.209063 87.426688)scale(0.1 -0.1)">
      <use xlink:href="#DejaVuSans-80"/>
      <use x="60.302734" xlink:href="#DejaVuSans-104"/>
      <use x="123.681641" xlink:href="#DejaVuSans-97"/>
      <use x="184.960938" xlink:href="#DejaVuSans-115"/>
      <use x="237.060547" xlink:href="#DejaVuSans-101"/>
      <use x="298.583984" xlink:href="#DejaVuSans-32"/>
      <use x="330.371094" xlink:href="#DejaVuSans-49"/>
      <use x="393.994141" xlink:href="#DejaVuSans-32"/>
      <use x="425.78125" xlink:href="#DejaVuSans-116"/>
      <use x="464.990234" xlink:href="#DejaVuSans-111"/>
      <use x="526.171875" xlink:href="#DejaVuSans-32"/>
      <use x="557.958984" xlink:href="#DejaVuSans-112"/>
      <use x="621.435547" xlink:href="#DejaVuSans-104"/>
      <use x="684.814453" xlink:href="#DejaVuSans-97"/>
      <use x="746.09375" xlink:href="#DejaVuSans-115"/>
      <use x="798.193359" xlink:href="#DejaVuSans-101"/>
      <use x="859.716797" xlink:href="#DejaVuSans-32"/>
      <use x="891.503906" xlink:href="#DejaVuSans-50"/>
     </g>
    </g>
   </g>
  </g>
 </g>
 <defs>
  <clipPath id="pf626042515">
   <rect height="266.112" width="357.12" x="57.6" y="41.472"/>
  </clipPath>
 </defs>
</svg>
